<svg width="738" height="738" xmlns="http://www.w3.org/2000/svg" xmlns:xlink="http://www.w3.org/1999/xlink" xml:space="preserve" overflow="hidden"><g transform="translate(-1469 -869)"><path d="M1479.5 1238C1479.5 1040.01 1640.01 879.5 1838 879.5 2035.99 879.5 2196.5 1040.01 2196.5 1238 2196.5 1435.99 2035.99 1596.5 1838 1596.5 1640.01 1596.5 1479.5 1435.99 1479.5 1238Z" stroke="#4063D8" stroke-width="20.625" stroke-miterlimit="8" fill="none" fill-rule="evenodd"/><path d="M1846.21 958.985 1861.71 958.985C1861.22 966.735 1860.98 977.472 1860.98 991.196L1860.98 1092.43C1860.98 1097.11 1861.24 1100.65 1861.77 1103.03 1862.29 1105.41 1863.22 1107.35 1864.55 1108.84 1865.88 1110.33 1867.8 1111.5 1870.3 1112.35 1872.81 1113.2 1875.95 1113.84 1879.75 1114.29 1883.54 1114.73 1888.55 1115.03 1894.76 1115.2L1894.76 1126.22 1790.26 1126.22 1790.26 1115.2C1799.22 1114.79 1805.62 1114.25 1809.45 1113.56 1813.29 1112.88 1816.21 1111.85 1818.23 1110.47 1820.25 1109.1 1821.72 1107.16 1822.65 1104.66 1823.58 1102.16 1824.05 1098.08 1824.05 1092.43L1824.05 1004.88C1824.05 1001.57 1823.42 999.189 1822.17 997.735 1820.92 996.282 1819.2 995.556 1817.02 995.556 1815 995.556 1812.16 996.484 1808.48 998.341 1804.81 1000.2 1798.78 1003.99 1790.38 1009.72L1782.99 996.888Z" fill="#389326" fill-rule="evenodd"/><text fill="#000000" fill-opacity="0" font-family="Arial,Arial_MSFontService,sans-serif" font-size="167.23" x="1782.99" y="1105.31">𝟏</text><path d="M1684.28 1305.7 1697.96 1305.7 1675.44 1407.66 1677.86 1407.66C1680.77 1407.66 1683.51 1407.14 1686.1 1406.09 1689.25 1404.8 1693.12 1402.5 1697.72 1399.19 1703.94 1394.59 1708.34 1390.99 1710.92 1388.41 1713.5 1385.83 1715.3 1383.39 1716.31 1381.08 1717.32 1378.78 1717.82 1376.42 1717.82 1374 1717.82 1372.14 1717.32 1370.57 1716.31 1369.28 1715.3 1367.99 1713.5 1367.22 1710.92 1366.98L1712.86 1358.98 1755.97 1358.98 1759 1366.86C1753.99 1372.35 1747.25 1378.32 1738.77 1384.78L1711.53 1405.24 1724 1449.44C1725.45 1454.69 1726.8 1458.24 1728.06 1460.1 1729.31 1461.95 1731.06 1462.88 1733.32 1462.88 1735.42 1462.88 1737.8 1461.81 1740.47 1459.67 1743.13 1457.53 1746.28 1454.33 1749.91 1450.05L1758.63 1458.77C1751.12 1466.84 1744.34 1472.57 1738.29 1475.96 1732.23 1479.35 1726.02 1481.05 1719.64 1481.05 1711.65 1481.05 1705.43 1479.15 1700.99 1475.36 1696.55 1471.56 1693.32 1465.06 1691.3 1455.86L1684.89 1426.8C1684.48 1424.86 1683.96 1423.33 1683.31 1422.2 1682.67 1421.07 1681.82 1420.26 1680.77 1419.77 1679.72 1419.29 1678.14 1419.05 1676.05 1419.05L1673.02 1419.05 1659.82 1479.11 1625.07 1479.11 1655.7 1342.27C1657.48 1334.36 1658.37 1328.59 1658.37 1324.96 1658.37 1323.18 1658.18 1321.79 1657.82 1320.78 1657.46 1319.77 1656.91 1318.94 1656.19 1318.3 1655.46 1317.65 1654.49 1317.15 1653.28 1316.78 1652.07 1316.42 1649.69 1316 1646.14 1315.51L1648.07 1307.64Z" fill="#CB3C33" fill-rule="evenodd"/><text fill="#000000" fill-opacity="0" font-family="Arial,Arial_MSFontService,sans-serif" font-size="175.344" x="1625.07" y="1459.13">𝒌</text><path d="M1817.05 1472.17 1806.8 1519.01C1809.28 1519.19 1813.05 1519.28 1818.11 1519.28 1825.42 1519.28 1831.21 1517.92 1835.48 1515.21 1839.75 1512.5 1842.92 1508.7 1844.98 1503.81 1847.04 1498.92 1848.07 1493.91 1848.07 1488.79 1848.07 1477.71 1841.8 1472.17 1829.25 1472.17ZM1838.97 1419.32C1834.85 1419.32 1831.37 1419.47 1828.54 1419.76L1819.26 1461.83 1833.05 1461.83C1838.23 1461.83 1842.76 1460.67 1846.62 1458.34 1850.48 1456.01 1853.44 1452.79 1855.5 1448.66 1857.56 1444.54 1858.59 1439.8 1858.59 1434.43 1858.59 1429.37 1857 1425.58 1853.82 1423.08 1850.64 1420.57 1845.69 1419.32 1838.97 1419.32ZM1794.52 1408.98 1845.25 1408.98C1855.62 1408.98 1863.7 1409.89 1869.51 1411.72 1875.31 1413.55 1879.51 1416.26 1882.1 1419.85 1884.69 1423.45 1885.99 1427.98 1885.99 1433.46 1885.99 1441.65 1883.73 1448.4 1879.23 1453.7 1874.72 1459 1867.46 1463.6 1857.44 1467.49L1857.27 1468.46C1862.8 1470.7 1867.09 1473.82 1870.12 1477.83 1873.16 1481.83 1874.68 1486.46 1874.68 1491.7 1874.68 1498.89 1872.95 1505.17 1869.51 1510.53 1866.06 1515.89 1860.56 1520.41 1853.02 1524.09 1845.48 1527.78 1833.87 1529.62 1818.2 1529.62L1770.21 1529.62 1771.45 1523.78C1774.81 1522.84 1777.28 1521.19 1778.87 1518.84 1780.46 1516.48 1781.97 1512.12 1783.38 1505.76L1799.47 1432.84C1800.23 1429.37 1800.61 1425.92 1800.61 1422.5 1800.61 1420.03 1800.04 1418.22 1798.89 1417.07 1797.74 1415.92 1795.87 1415.17 1793.28 1414.81Z" fill="#CB3C33" fill-rule="evenodd"/><text fill="#000000" fill-opacity="0" font-family="Arial,Arial_MSFontService,sans-serif" font-size="120.637" x="1770.21" y="1514.54">𝑩</text><path d="M1923.62 1313.82 2057.07 1313.82 2047.5 1357.65 2032 1357.65C2031.92 1348.69 2031.4 1342.41 2030.43 1338.82 2029.46 1335.23 2027.91 1332.53 2025.77 1330.71 2023.63 1328.89 2020.62 1327.98 2016.75 1327.98L2005.97 1327.98 1979.93 1446.41C1979.37 1449.08 1978.96 1451.34 1978.72 1453.2 1978.48 1455.05 1978.36 1457.51 1978.36 1460.58 1978.36 1464.3 1979.31 1466.92 1981.21 1468.45 1983.1 1469.99 1986.07 1470.88 1990.11 1471.12L1988.41 1479.11 1924.11 1479.11 1925.8 1471.12C1929.36 1470.63 1932.18 1469.58 1934.28 1467.97 1936.38 1466.35 1938.14 1463.95 1939.55 1460.76 1940.96 1457.58 1942.39 1452.79 1943.85 1446.41L1969.88 1327.98 1960.2 1327.98C1955.76 1327.98 1952.16 1328.65 1949.42 1329.98 1946.67 1331.31 1943.61 1334.1 1940.21 1338.34 1936.82 1342.58 1933.55 1348.17 1930.41 1355.11L1914.54 1355.11Z" fill="#9558B2" fill-rule="evenodd"/><text fill="#000000" fill-opacity="0" font-family="Arial,Arial_MSFontService,sans-serif" font-size="165.293" x="1914.54" y="1458.45">𝑻</text><path d="M1613.55 1234.54 1725.05 1234.54 1836.55 1234.54 1948.05 1234.54 2059.55 1234.54 2059.55 1250.54 1948.05 1250.54 1836.55 1250.54 1725.05 1250.54 1613.55 1250.54Z" fill="#4063D8" fill-rule="evenodd"/></g></svg>